<?xml version="1.0" standalone="no"?>
<!DOCTYPE svg PUBLIC "-//W3C//DTD SVG 20010904//EN"
 "http://www.w3.org/TR/2001/REC-SVG-20010904/DTD/svg10.dtd">
<svg version="1.0" xmlns="http://www.w3.org/2000/svg"
 width="500.000000pt" height="500.000000pt" viewBox="0 0 500.000000 500.000000"
 preserveAspectRatio="xMidYMid meet">

<g transform="translate(0.000000,500.000000) scale(0.100000,-0.100000)"
fill="#000000" stroke="none">
<path d="M1146 3274 c-9 -8 -16 -25 -16 -37 0 -12 -7 -94 -15 -182 -20 -212
-20 -215 5 -215 23 0 22 -3 44 95 35 151 125 280 215 305 20 5 87 10 149 10
l112 0 0 -275 0 -275 110 0 110 0 0 275 0 275 113 0 c61 0 129 -5 151 -11 87
-24 178 -158 214 -315 15 -69 21 -79 41 -82 23 -4 24 -2 18 55 -4 32 -12 123
-18 203 -7 87 -17 154 -26 168 l-13 22 -590 0 c-522 0 -590 -2 -604 -16z"/>
<path d="M2480 3276 c0 -13 16 -16 100 -16 l100 0 0 -280 0 -280 110 0 110 0
0 280 0 280 123 0 c226 -1 330 -29 420 -118 85 -83 136 -198 158 -358 l12 -84
119 0 c94 0 118 3 118 14 0 30 -44 154 -76 216 -82 158 -214 269 -389 328
l-80 26 -412 4 c-369 3 -413 2 -413 -12z"/>
<path d="M1057 2573 c-13 -12 -7 -23 13 -23 17 0 20 -7 20 -50 0 -38 4 -50 15
-50 11 0 15 12 15 50 0 43 3 50 20 50 11 0 20 7 20 15 0 11 -12 15 -48 15 -27
0 -52 -3 -55 -7z"/>
<path d="M1251 2518 c-16 -37 -24 -65 -18 -67 6 -2 16 4 22 13 16 21 61 21 73
0 5 -9 14 -15 21 -13 14 5 -43 129 -59 129 -6 0 -24 -28 -39 -62z m52 2 c4
-15 0 -20 -14 -20 -17 0 -18 3 -9 20 6 11 12 20 14 20 2 0 6 -9 9 -20z"/>
<path d="M1437 2573 c-2 -5 -3 -32 -2 -62 1 -64 25 -86 25 -24 l1 38 33 -37
c47 -54 56 -49 56 28 0 48 -3 65 -12 62 -7 -3 -15 -20 -18 -39 l-5 -34 -29 38
c-28 36 -41 44 -49 30z"/>
<path d="M1660 2562 c-49 -40 -15 -115 49 -110 31 3 36 7 39 31 2 15 -1 27 -7
27 -6 0 -11 -6 -11 -14 0 -20 -16 -29 -39 -21 -48 15 -29 78 21 73 37 -4 49
17 16 26 -35 9 -44 7 -68 -12z"/>
<path d="M1847 2573 c-14 -13 -7 -92 9 -107 18 -19 65 -21 82 -4 14 14 16 118
2 118 -5 0 -10 -20 -10 -44 0 -26 -6 -48 -15 -56 -25 -20 -45 5 -45 56 0 41
-8 53 -23 37z"/>
<path d="M2040 2568 c0 -7 9 -26 20 -43 11 -16 20 -40 20 -52 0 -14 6 -23 15
-23 9 0 15 9 15 25 0 13 9 39 20 57 22 36 25 48 11 48 -5 0 -18 -14 -29 -32
l-20 -31 -16 31 c-17 32 -36 43 -36 20z"/>
<path d="M2348 2574 c-5 -4 -8 -34 -8 -66 l0 -58 45 0 c73 0 108 51 68 99 -18
21 -92 39 -105 25z m80 -36 c18 -18 14 -46 -7 -58 -38 -20 -51 -13 -51 30 0
35 3 40 23 40 13 0 28 -5 35 -12z"/>
<path d="M2572 2564 c-28 -19 -30 -74 -4 -97 40 -36 112 -6 112 46 0 28 -9 41
-37 56 -29 15 -44 14 -71 -5z m76 -45 c4 -31 -20 -53 -47 -44 -45 14 -30 79
17 73 21 -2 28 -9 30 -29z"/>
<path d="M2770 2515 c0 -37 4 -65 10 -65 6 0 10 14 10 30 0 37 13 39 29 3 l13
-28 24 30 24 30 0 -32 c0 -23 5 -33 15 -33 12 0 15 13 15 59 0 33 -4 62 -10
66 -5 3 -21 -13 -36 -35 l-27 -41 -24 41 c-13 22 -28 40 -34 40 -5 0 -9 -29
-9 -65z"/>
<path d="M3000 2515 l0 -65 50 0 c28 0 50 5 50 10 0 6 -16 10 -35 10 -24 0
-35 5 -35 15 0 10 10 15 30 15 17 0 30 5 30 10 0 6 -13 10 -30 10 -20 0 -30 5
-30 15 0 10 10 15 30 15 20 0 30 5 30 15 0 11 -12 15 -45 15 l-45 0 0 -65z"/>
<path d="M3187 2573 c-4 -3 -7 -33 -7 -65 0 -45 3 -58 15 -58 8 0 15 6 15 14
0 25 19 28 37 6 23 -27 48 -28 33 0 -7 14 -7 25 1 38 7 11 9 27 6 36 -10 26
-82 47 -100 29z m73 -43 c0 -15 -7 -20 -25 -20 -18 0 -25 5 -25 20 0 15 7 20
25 20 18 0 25 -5 25 -20z"/>
<path d="M3410 2573 c-41 -15 -54 -78 -22 -106 36 -33 102 -17 102 25 0 24
-26 23 -33 -2 -11 -41 -61 -12 -55 32 2 19 10 23 38 24 54 2 56 4 36 19 -20
15 -39 18 -66 8z"/>
<path d="M3577 2573 c-13 -12 -7 -79 9 -101 21 -31 69 -30 89 2 19 28 17 97
-2 104 -9 2 -13 -10 -13 -41 0 -27 -6 -49 -15 -57 -25 -20 -45 5 -45 56 0 41
-8 53 -23 37z"/>
<path d="M3780 2515 l0 -65 50 0 c28 0 50 5 50 10 0 6 -16 10 -35 10 -24 0
-35 5 -35 15 0 10 10 15 30 15 17 0 30 5 30 10 0 6 -13 10 -30 10 -20 0 -30 5
-30 15 0 10 10 15 30 15 20 0 30 5 30 15 0 11 -12 15 -45 15 l-45 0 0 -65z"/>
<path d="M1640 2035 l0 -265 -100 0 c-93 0 -100 -1 -100 -20 0 -20 7 -20 310
-20 303 0 310 0 310 20 0 19 -7 20 -100 20 l-100 0 0 265 0 265 -110 0 -110 0
0 -265z"/>
<path d="M2680 2050 l0 -250 -100 0 c-94 0 -100 -1 -100 -21 0 -20 1 -20 408
-16 455 4 451 4 601 78 64 32 102 60 155 113 83 83 124 150 166 264 l30 82
-118 0 -117 0 -18 -91 c-22 -116 -72 -224 -133 -289 -91 -97 -164 -120 -391
-120 l-163 0 0 250 0 250 -110 0 -110 0 0 -250z"/>
<path d="M1921 1534 c-2 -22 21 -74 30 -68 5 3 9 10 9 16 0 6 -3 8 -7 4 -4 -4
-13 8 -19 26 -7 18 -13 28 -13 22z"/>
<path d="M1966 1524 c-3 -9 -4 -19 -1 -22 3 -3 5 1 5 9 0 11 2 11 10 -1 5 -8
10 -10 10 -5 0 6 -4 16 -9 23 -6 11 -10 10 -15 -4z"/>
<path d="M2130 1500 c0 -37 2 -40 28 -39 23 2 24 2 5 6 -18 3 -23 11 -23 33 0
22 5 30 23 33 19 4 18 4 -5 6 -26 1 -28 -2 -28 -39z"/>
<path d="M2280 1500 c0 -38 2 -40 29 -40 35 0 46 13 31 37 -9 16 -10 15 -5 -4
5 -20 2 -23 -19 -23 -22 0 -26 4 -26 31 0 28 3 31 25 27 13 -3 22 -1 19 3 -3
5 -16 9 -30 9 -21 0 -24 -4 -24 -40z"/>
<path d="M2554 1529 c-3 -6 -1 -16 5 -22 9 -9 11 -8 6 5 -5 12 0 18 17 21 22
4 22 4 1 6 -12 0 -25 -4 -29 -10z"/>
<path d="M2703 1500 c0 -25 2 -35 4 -22 2 12 2 32 0 45 -2 12 -4 2 -4 -23z"/>
<path d="M2813 1533 c12 -3 17 -16 19 -41 l1 -37 4 35 c3 19 10 38 16 42 7 4
-4 7 -23 7 -19 -1 -27 -3 -17 -6z"/>
<path d="M2960 1500 c0 -37 2 -40 28 -39 23 2 24 2 5 6 -18 3 -23 11 -23 33 0
22 5 30 23 33 19 4 18 4 -5 6 -26 1 -28 -2 -28 -39z"/>
<path d="M2014 1506 c-3 -14 -10 -23 -15 -20 -5 3 -9 1 -9 -5 0 -5 4 -12 9
-15 9 -6 35 54 27 62 -3 2 -8 -7 -12 -22z"/>
<path d="M2590 1493 c18 -9 11 -22 -15 -26 -23 -4 -23 -4 2 -3 28 1 40 27 15
32 -7 1 -8 0 -2 -3z"/>
</g>
</svg>
